<svg width="50" height="41" viewBox="0 0 50 41" fill="none" xmlns="http://www.w3.org/2000/svg">
<path d="M38.2794 30.8718V30.4603H40.8775C41.351 30.4603 41.6858 30.3574 41.8475 30.3003C41.9745 30.2431 42.1246 30.2317 42.2632 30.2431C42.344 30.2431 42.4249 30.2774 42.4941 30.3003C42.7482 30.4031 42.9676 30.4603 42.9676 30.4603H46.8013V23.7167L45.6466 23.991V29.3516H43.3602V29.2602C44.157 28.4944 44.3533 27.5686 44.3533 27.5686V26.4142H39.6881V27.6029C39.8729 28.5172 40.7159 29.283 40.7159 29.283V29.3402H38.2563V26.8713L37.1015 27.1685V31.0204C37.1015 31.4661 36.5588 31.6376 36.5588 31.6376H35.4387V32.7691H36.351C37.4133 32.7691 38.2678 31.9233 38.2678 30.8718H38.2794ZM42.0553 27.5686H43.187C42.6443 28.5858 42.0553 28.9287 42.0553 28.9287C42.0553 28.9287 41.4664 28.5858 40.9237 27.5686H42.0553Z" fill="#DADACA"/>
<path d="M49.2609 23.7167L48.1523 23.991V30.4603H49.2609V23.7167Z" fill="#DADACA"/>
<path d="M4.39949 28.2315C4.39949 27.2257 3.56808 26.4027 2.55192 26.4027H0.692795V27.5457H2.58656C2.94453 27.5457 3.22166 27.8314 3.22166 28.1743V29.3059H0.0461426V30.4374H4.39949V28.22V28.2315Z" fill="#DADACA"/>
<path d="M17.2863 30.266C17.3094 30.266 17.344 30.2431 17.3786 30.2431C17.4133 30.2431 17.4364 30.2431 17.471 30.266C17.7366 30.4146 18.0022 30.4717 18.0022 30.4717H20.9006V23.7281L19.8036 24.0025V29.3516H18.1292L18.0368 29.3059V23.7281L16.8821 24.0025V28.9287C16.8821 29.1687 16.6858 29.3516 16.4549 29.3516H14.5842V29.2602C15.381 28.4944 15.5773 27.5685 15.5773 27.5685V26.4141H10.9121V27.6028C11.0969 28.5172 11.9398 29.283 11.9398 29.283V29.3402H9.45717V26.4027H7.04377C6.07379 26.4027 5.28857 27.1799 5.28857 28.14V28.6429C5.28857 29.6488 6.10843 30.4603 7.1246 30.4603H8.30243V31.0318C8.30243 31.4775 7.7597 31.649 7.7597 31.649H5.78511V32.7805H7.55185C8.61421 32.7805 9.46871 31.9347 9.46871 30.8832V30.4717H12.09C12.5634 30.4717 12.8983 30.3688 13.0599 30.3117C13.1639 30.266 13.2678 30.2545 13.3833 30.2545C13.4987 30.2545 13.6027 30.2774 13.7066 30.3117C13.9606 30.4146 14.1916 30.4717 14.1916 30.4717H16.6743C16.9398 30.4488 17.1939 30.3231 17.2978 30.266H17.2863ZM8.27934 29.283H6.95139C6.67425 29.283 6.44331 29.0544 6.44331 28.7801V27.98C6.44331 27.7743 6.61652 27.6028 6.82437 27.6028H8.27934V29.283ZM13.2678 28.9173C13.2678 28.9173 12.6789 28.5744 12.1361 27.5571H14.411C13.8682 28.5744 13.2793 28.9173 13.2793 28.9173H13.2678Z" fill="#DADACA"/>
<path d="M30.3696 30.4603C30.6005 30.4603 30.9239 30.4374 30.9239 30.2088C30.9239 30.4374 31.2587 30.4603 31.4781 30.4603H35.0809V26.8713L33.9377 27.1456V29.2944H31.5705L31.5474 26.8713L30.9354 27.0085L30.3927 27.1456V29.2944H28.1871V26.4027H25.7391C24.7229 26.4027 23.9031 27.2142 23.9031 28.22V30.4603H30.3811H30.3696ZM27.0209 29.2944H25.0925V28.06C25.0925 27.7857 25.3119 27.5685 25.589 27.5685H27.0324V29.2944H27.0209Z" fill="#DADACA"/>
<path d="M29.4919 31.9005L30.1617 32.6091L30.8661 31.9119L30.1848 31.2032L29.4919 31.9005Z" fill="#DADACA"/>
<path d="M19.9539 34.7236L20.843 35.6494L21.7552 34.735L20.8776 33.8206L19.9539 34.7236Z" fill="#DADACA"/>
<path d="M30.9932 31.9005L31.6629 32.6091L32.3673 31.9119L31.686 31.2032L30.9932 31.9005Z" fill="#DADACA"/>
<path d="M26.3049 25.0083L25.6236 24.3111L24.9192 24.9969L25.6005 25.717L26.3049 25.0083Z" fill="#DADACA"/>
<path d="M27.7945 25.0083L27.1248 24.3111L26.4204 24.9969L27.0902 25.717L27.7945 25.0083Z" fill="#DADACA"/>
<path d="M33.8799 31.2032L33.1755 31.9005L33.8568 32.6091L34.5612 31.9119L33.8799 31.2032Z" fill="#DADACA"/>
<path d="M42.9445 39.3183C42.9445 39.3183 42.5634 39.5926 42.2979 39.6269C42.0207 39.6612 41.5473 39.6498 41.5011 39.1697V36.2094L40.2424 36.3123V39.5241C40.2424 39.5241 40.2424 40.3927 41.2701 40.5527C42.2979 40.7128 43.0484 40.0613 43.0484 40.0613L43.1177 40.4042H44.1801V36.198L42.9676 36.3123L42.9445 39.3069V39.3183Z" fill="#DADACA"/>
<path d="M30.2311 36.1866C29.4343 36.0609 28.753 36.4381 28.5105 36.6095V36.2095L27.3096 36.3352V40.4385H28.522L28.5451 37.4096C28.5451 37.4096 28.9262 37.1353 29.1918 37.101C29.4689 37.0667 29.9424 37.0781 29.9886 37.5582V40.4385H31.2472V37.2153C31.2472 37.2153 31.2472 36.3466 30.2195 36.1866H30.2311Z" fill="#DADACA"/>
<path d="M48.0254 34.0606V36.198C48.0254 36.198 46.9399 35.958 46.1894 36.358C45.4388 36.7695 44.9422 37.6153 45.0808 38.9526C45.2309 40.3699 46.6166 41.1242 48.1062 40.1641L48.187 40.4156H49.2725V33.9464L48.0138 34.0606H48.0254ZM48.0023 39.3869C48.0023 39.3869 47.5519 39.7298 46.9746 39.6041C46.3972 39.4669 46.3395 38.8269 46.3972 38.1068C46.4549 37.3867 46.9053 36.8724 48.0023 37.101V39.3983V39.3869Z" fill="#DADACA"/>
<path d="M37.0209 34.0264H36.4897C35.3119 34.0264 34.365 34.9636 34.365 36.1294V38.4611C34.365 39.627 35.3119 40.5642 36.4897 40.5642H37.0209C38.1987 40.5642 39.1456 39.627 39.1456 38.4611V36.1294C39.1456 34.9636 38.1987 34.0264 37.0209 34.0264ZM38.0139 38.5183C38.0139 39.044 37.5867 39.4784 37.044 39.4784H36.4666C35.9354 39.4784 35.4966 39.0555 35.4966 38.5183V36.0609C35.4966 35.5351 35.9239 35.1008 36.4666 35.1008H37.044C37.5751 35.1008 38.0139 35.5237 38.0139 36.0609V38.5183Z" fill="#DADACA"/>
<path d="M24.2032 36.1523C23.1409 36.2323 22.4711 36.7695 22.4711 36.7695L22.9677 37.5239C24.9192 36.4381 24.9076 37.5239 24.9076 37.5239V37.8668C24.9076 37.8668 24.03 37.8668 23.3834 38.1068C22.7367 38.3468 22.1709 38.6897 22.2748 39.5127C22.3672 40.3356 23.1178 40.5528 23.3718 40.5642C23.6259 40.5642 24.388 40.5985 24.9769 40.107L25.1155 40.4042H26.1663V37.1696C26.0624 36.3124 25.2771 36.038 24.2032 36.1295V36.1523ZM24.9307 39.4098C24.9307 39.4098 24.5381 39.6613 24.134 39.6956C23.7875 39.7299 23.4296 39.4441 23.6143 39.0898C23.6721 38.9755 23.776 38.884 23.8915 38.8269C24.0762 38.7355 24.4226 38.6097 24.9307 38.6097V39.3984V39.4098Z" fill="#DADACA"/>
<path d="M12.0438 36.1523C10.9815 36.2323 10.3117 36.7695 10.3117 36.7695L10.8083 37.5239C12.7598 36.4381 12.7482 37.5239 12.7482 37.5239V37.8668C12.7482 37.8668 11.8706 37.8668 11.224 38.1068C10.5773 38.3468 10.0115 38.6897 10.1154 39.5127C10.2078 40.3356 10.9584 40.5528 11.2124 40.5642C11.4665 40.5642 12.2286 40.5985 12.8175 40.107L12.9561 40.4042H14.0069V37.1696C13.9029 36.3124 13.1177 36.038 12.0438 36.1295V36.1523ZM12.7713 39.4098C12.7713 39.4098 12.3787 39.6613 11.9745 39.6956C11.6281 39.7299 11.2701 39.4441 11.4549 39.0898C11.5126 38.9755 11.6166 38.884 11.732 38.8269C11.9168 38.7355 12.2632 38.6097 12.7713 38.6097V39.3984V39.4098Z" fill="#DADACA"/>
<path d="M18.5104 36.3238C17.6905 35.8437 16.3857 36.5066 16.3857 36.5066V33.9349L15.1155 34.0607V40.3585C15.1155 40.3585 17.194 40.9642 18.3603 40.2556C19.134 39.787 19.3072 39.0555 19.3303 38.6097V37.8668C19.3303 37.8668 19.261 36.7695 18.4988 36.3238H18.5104ZM18.0485 38.484C18.0485 38.9526 17.7252 39.4212 17.3441 39.5698C16.9631 39.7298 16.3741 39.627 16.3741 39.627V37.3067C18.2102 36.4838 18.037 38.0039 18.037 38.484H18.0485Z" fill="#DADACA"/>
<path d="M20.231 40.427H21.4896V36.1866L20.231 36.2895V40.427Z" fill="#DADACA"/>
<path d="M8.26801 36.7581V36.2095L6.9978 36.3238V40.4499H8.23337V37.8896C8.23337 37.8896 8.81074 37.0781 9.68834 37.4667L9.73452 37.4896L9.91928 36.2095C9.91928 36.2095 8.84538 35.9009 8.26801 36.7581Z" fill="#DADACA"/>
<path d="M5.05774 33.9121H2.8291C1.61663 34.0378 1.27021 35.1808 1.27021 35.1808L0 40.5071H1.28175L1.87067 38.0725L3.17552 39.387L4.54965 38.0497L4.95381 40.3356C4.96536 40.4271 5.05774 40.5071 5.15012 40.5071H6.097C6.16628 40.5071 6.21247 40.4499 6.20092 40.3814L5.04619 33.9121H5.05774ZM3.18707 36.4267L1.98614 37.6039L2.52887 35.3751C2.56351 35.2265 2.69053 35.1237 2.84065 35.1237H4.03002L4.48037 37.6611L3.18707 36.4267Z" fill="#DADACA"/>
<path d="M30.2772 19.122L30.3696 19.6249L26.1895 20.1163H25.5082L21.3742 19.602L18.8223 19.5906L18.9493 19.0305L21.3973 19.0648L21.4897 18.5962L25.8084 19.0077V19.5449L30.2772 19.122Z" fill="#DADACA"/>
<path d="M30.0117 18.0476L29.8962 17.5446L25.8084 17.8532V17.2818L21.8593 17.0074L21.7669 17.4875L19.3073 17.4418L19.2034 18.0133L21.6976 18.0476L25.4158 18.3904H26.3281L30.0117 18.0476Z" fill="#DADACA"/>
<path d="M29.6421 16.4589L29.5266 15.9674L25.8084 16.116V15.533L22.2056 15.4302L22.1363 15.9102L19.6768 15.8531L19.5613 16.436L22.2518 16.4589L25.7276 16.6874H25.9585L29.6421 16.4589Z" fill="#DADACA"/>
<path d="M29.3073 14.8473V14.3329L25.8084 14.3786V13.8186L22.3442 13.7957V14.2758H19.9077V14.8473L25.716 14.9616L29.3073 14.8473Z" fill="#DADACA"/>
<path d="M29.2726 12.6985V13.2128L19.9077 13.2014V12.6527H22.3557V12.1727L25.8084 12.1155V12.687L29.2726 12.6985Z" fill="#DADACA"/>
<path d="M29.5266 11.0754L25.7968 10.9383V10.3896L21.8245 10.5382L22.0901 11.0411H19.6074L19.8615 11.5669H22.7598L25.5774 11.5212L29.3072 11.5669L29.5266 11.0754Z" fill="#DADACA"/>
<path d="M30.0115 9.9896L30.2425 9.48669L25.8083 9.21237V8.62946C25.8083 8.62946 21.6166 8.99521 21.1547 9.01807L21.351 9.42954L18.8799 9.39525L19.1686 9.9896L21.7898 10.0239L25.6928 9.77243L30.0115 9.9896Z" fill="#DADACA"/>
<path d="M30.716 8.46944L30.9354 7.9551L25.8199 7.49791V6.90356L20.4619 7.48648L20.6698 7.89795H18.2102L18.4296 8.41229L19.7691 8.46944H21.1548L25.7737 8.04654L30.716 8.46944Z" fill="#DADACA"/>
<path d="M31.4205 6.96068L31.6283 6.48063L25.8085 5.76056V5.2005L19.7923 5.98915L19.954 6.35491H17.4944L17.76 6.90353L20.3004 6.96068L25.82 6.32062L31.4205 6.96068Z" fill="#DADACA"/>
<path d="M32.0671 5.47482L32.2981 5.01763L25.8085 4.03467V3.47461L23.3604 3.84036C23.3604 3.84036 22.2981 5.02906 20.5429 4.32041C20.5429 4.32041 19.469 4.54901 19.111 4.52615L19.3073 4.92619L16.8362 4.8919L17.1133 5.46339H19.6537L25.7738 4.5833L32.0787 5.46339L32.0671 5.47482Z" fill="#DADACA"/>
<path d="M31.7091 3.85178C31.7091 3.85178 32.0786 3.55461 32.2864 3.00598L33.1525 3.17743L32.7252 4.08038L31.6975 3.85178H31.7091Z" fill="#DADACA"/>
<path d="M27.5866 3.16604C27.5866 3.16604 27.3441 2.93744 27.1363 2.51454C27.1363 2.51454 25.9931 2.30881 25.8199 2.30881V1.72589C25.8199 1.72589 25.1271 1.88591 24.7691 1.90877C24.7691 1.90877 24.4919 2.74314 24.0647 3.16604L25.6351 2.89173H25.9585C25.9585 2.89173 27.2749 3.15461 27.5866 3.16604Z" fill="#DADACA"/>
<path d="M26.6397 1.30299C26.6397 1.30299 26.4781 0.685785 26.5243 0.160016L25.8314 0L25.1155 0.137157C25.1155 0.137157 25.1732 0.93724 25 1.30299L25.7852 1.14298L26.6397 1.30299Z" fill="#DADACA"/>
<path d="M18.4644 3.10885L18.6376 3.46318H16.178L16.432 3.98894L19.0764 4.02323L19.9309 3.86322C19.6306 3.66891 19.3304 2.96027 19.3304 2.96027C19.3304 2.96027 18.8454 3.09742 18.4528 3.09742H18.4644V3.10885Z" fill="#DADACA"/>
</svg>
