<svg width="50" height="33" viewBox="0 0 50 33" fill="none" xmlns="http://www.w3.org/2000/svg">
<g clip-path="url(#clip0_400_5623)">
<path d="M3.57649 32.9974C3.55524 32.995 3.4832 32.9876 3.41641 32.9809C2.8067 32.9198 2.15584 32.6713 1.64421 32.3041C0.877124 31.7536 0.336569 30.952 0.111098 30.0306C-0.00872006 29.541 -0.0325335 28.9925 0.0440957 28.4879C0.249562 27.1349 1.14645 25.976 2.39061 25.4559C2.70111 25.326 3.00926 25.244 3.37225 25.1944C3.57346 25.1669 4.0635 25.1667 4.26649 25.1941C4.69698 25.2522 5.06185 25.3604 5.43674 25.5412C5.84924 25.7402 6.13472 25.945 6.48026 26.29C6.78234 26.5917 6.96887 26.8427 7.18514 27.2388L7.23114 27.323L7.0681 27.4433C6.8435 27.6089 6.31666 27.9836 6.14507 28.0998L6.00332 28.1957L5.94501 28.0694C5.87292 27.9132 5.8216 27.8207 5.73849 27.6969C5.4064 27.2026 4.87684 26.8494 4.29961 26.7375C3.99418 26.6782 3.61815 26.6848 3.31705 26.7547C3.00086 26.8281 2.6575 26.9927 2.3952 27.1967C2.28947 27.2789 2.09488 27.4713 2.00926 27.5782C1.54729 28.1553 1.37713 28.8905 1.53557 29.6248C1.59042 29.879 1.73241 30.2111 1.88053 30.4317C2.27257 31.0156 2.87348 31.3897 3.55412 31.4736C3.67445 31.4884 3.96429 31.4884 4.08462 31.4736C4.6874 31.3993 5.24436 31.0871 5.62494 30.6102C5.73702 30.4697 5.81513 30.3481 5.90421 30.1755C5.94325 30.0998 5.97844 30.0379 5.98243 30.0379C5.98641 30.0379 6.26393 30.2331 6.59913 30.4717L7.20858 30.9056L7.14683 31.022C7.01866 31.2636 6.79818 31.5674 6.59282 31.7852C6.24296 32.1563 5.90219 32.4085 5.45881 32.6244C5.07586 32.8109 4.67009 32.9298 4.23888 32.982C4.1422 32.9937 3.64522 33.0053 3.57649 32.9974ZM8.7874 29.0474V25.2451H10.2668V27.9744H14.1308V25.2451H15.6102V32.8498H14.1308V29.5042H10.2668V32.8498H8.7874V29.0474ZM17.1048 32.1757C17.2697 31.8049 18.0305 30.0939 18.7954 28.3734L20.1863 25.2451L21.224 25.2452L22.2618 25.2454L23.9431 29.0008C24.8678 31.0663 25.6339 32.7773 25.6455 32.803L25.6666 32.8498H23.8952L23.5532 32.096L23.2112 31.3421L21.2317 31.3448L19.2522 31.3475L18.9141 32.0986L18.5759 32.8498H16.8049L17.1048 32.1757ZM22.5855 29.808C22.5793 29.7811 21.2353 26.7865 21.2296 26.7865C21.2255 26.7866 19.9491 29.7561 19.9287 29.813C19.9264 29.8193 20.4368 29.8233 21.2571 29.8233C22.3901 29.8233 22.5886 29.821 22.5855 29.808ZM26.86 29.0474V25.2451L27.9005 25.2454L28.9411 25.2456L30.5695 27.5255L32.1979 29.8054L32.2007 27.5253L32.2034 25.2451H33.6938V32.85L33.0958 32.8471L32.4978 32.8443L30.4324 29.9861C29.2964 28.414 28.3632 27.1277 28.3587 27.1274C28.3541 27.1272 28.3504 28.4146 28.3504 29.9884V32.8498H26.86V29.0474ZM36.3876 29.0474V25.2451H41.7199V26.7749H37.878V28.2936H41.4329V29.8233H37.878V31.342H42.2719V32.8498H36.3876V29.0474ZM44.3585 29.0474V25.2451H45.8489V31.342H50V32.8498H44.3585V29.0474ZM18.8177 23.3111C17.2253 23.2376 15.4521 22.7557 14.0226 22.0077C12.9251 21.4335 12.0553 20.791 11.1441 19.8812C10.4304 19.1687 9.90389 18.5124 9.45819 17.7797L9.26308 17.459L9.53987 17.3126C10.0792 17.0275 12.538 15.7724 12.5573 15.7724C12.568 15.7724 12.6696 15.9103 12.783 16.0787C14.0643 17.9825 16.0689 19.2209 18.4146 19.558C18.8247 19.6169 20.0579 19.6075 20.5044 19.5421C21.0013 19.4692 21.5974 19.3342 21.9759 19.2086C22.0005 19.2004 21.9535 19.1242 21.8452 18.997C21.0067 18.0117 20.2423 16.6594 19.8123 15.4004C19.0345 13.1232 18.9791 10.6787 19.6533 8.3819C20.072 6.95563 20.7926 5.57126 21.7052 4.43994C21.8411 4.27139 21.9524 4.12268 21.9524 4.10948C21.9524 4.06459 21.24 3.87558 20.7731 3.79658C20.0518 3.67455 18.9226 3.65941 18.2707 3.76305C17.1738 3.93744 16.0604 4.34696 15.1904 4.89603C14.2209 5.50792 13.4124 6.29426 12.7673 7.25284L12.4824 7.67609L12.1198 7.48632C11.9204 7.38196 11.1795 6.99923 10.4735 6.63585C9.76742 6.27247 9.18755 5.97321 9.18487 5.97086C9.17364 5.96099 9.61566 5.26016 9.7976 4.99938C10.35 4.20758 11.331 3.15896 12.0557 2.58548C13.9508 1.0859 16.0577 0.241358 18.4296 0.0304421C18.8696 -0.00869258 19.9606 -0.00903375 20.385 0.0298148C21.8909 0.167623 23.1817 0.531599 24.5153 1.19437L25.1526 1.51112L25.3661 1.39001C25.7109 1.19443 26.3235 0.912249 26.7887 0.734668C28.0941 0.236449 29.4087 -0.000702772 30.8611 1.56418e-06C31.8754 0.000496801 32.7216 0.0998412 33.6402 0.326274C35.7154 0.83782 37.4851 1.81889 39.0099 3.30305C39.8366 4.10767 40.4845 4.9292 41.0075 5.83619L41.0868 5.97365L39.7966 6.63713C39.0871 7.00205 38.3448 7.38515 38.1471 7.48846L37.7877 7.67632L37.5161 7.26784C36.1758 5.25236 33.9834 3.94023 31.5837 3.71734C30.8732 3.65136 29.8183 3.71212 29.1771 3.85597C28.8471 3.93 28.3113 4.08259 28.3115 4.10251C28.3115 4.11292 28.3992 4.22857 28.5062 4.35952C29.8814 6.04156 30.7401 8.09191 31.0175 10.3562C31.0837 10.8966 31.0926 12.2763 31.0332 12.8113C30.7826 15.0707 29.9256 17.1557 28.5577 18.8342C28.2476 19.2147 28.2608 19.1884 28.3603 19.2267C28.4073 19.2448 28.627 19.3054 28.8487 19.3614C29.9753 19.6459 31.188 19.6862 32.3267 19.4767C34.3977 19.0957 36.263 17.8747 37.4627 16.1147C37.5742 15.951 37.675 15.8061 37.6866 15.7927C37.6981 15.7793 37.9747 15.9018 38.3011 16.0649C38.9477 16.388 40.9732 17.4328 40.9949 17.4545C41.0311 17.4905 40.3856 18.4457 39.9897 18.9419C39.6149 19.4116 38.6325 20.3898 38.1632 20.7606C36.467 22.1005 34.5635 22.9198 32.4669 23.2123C30.0596 23.5481 27.5101 23.0983 25.4358 21.9718L25.1426 21.8126L24.779 22.0044C22.9774 22.9546 20.9108 23.4076 18.8177 23.3111ZM25.5433 16.7099C26.5473 15.471 27.1737 13.9683 27.3281 12.4283C27.3799 11.9114 27.3491 10.8586 27.2684 10.388C27.0464 9.0929 26.5712 7.9829 25.8048 6.96856C25.6604 6.77756 25.4503 6.52221 25.3377 6.40115L25.1331 6.18101L24.9432 6.38626C24.6929 6.6568 24.2758 7.20876 24.0655 7.54762C22.9981 9.2683 22.6495 11.3822 23.1016 13.3942C23.3861 14.6603 24.0401 15.9357 24.9215 16.9431L25.1245 17.1751L25.2133 17.0913C25.2621 17.0452 25.4106 16.8736 25.5433 16.7099Z" fill="#DADACA"/>
</g>
<defs>
<clipPath id="clip0_400_5623">
<rect width="50" height="33" fill="white"/>
</clipPath>
</defs>
</svg>
