<svg width="49" height="12" viewBox="0 0 49 12" fill="none" xmlns="http://www.w3.org/2000/svg">
<path fill-rule="evenodd" clip-rule="evenodd" d="M39.4187 6.61557V4.7015H41.192V4.31863H39.4187V2.39781C39.9759 2.33088 40.6008 2.33088 41.2589 2.39781L41.2994 2.0484H38.7874V6.71674L37.3633 5.04442V4.73548C38.0214 4.52718 38.3711 4.03718 38.3711 3.27119C38.3711 2.50545 37.5716 2.04866 36.9068 2.04866H35.3084V7.06614H36.0739V2.36409C36.7724 2.36409 37.4979 2.60584 37.4979 3.37832C37.4979 4.1438 37.1148 4.52692 36.5236 4.7015L36.5576 5.01044L38.7874 7.62281L39.6942 7.79764L39.0691 7.06589H41.2994L41.7157 6.15904C40.9505 6.61557 40.151 6.75669 39.4187 6.61557ZM34.5764 2.0484H34.1932V4.90979C34.1932 5.951 34.1932 6.79041 33.2864 6.79041C32.447 6.79041 32.2792 6.30015 32.2792 4.97697V2.0484H31.6812V5.11783C31.6812 6.47446 31.896 7.30738 33.2864 7.30738C34.6098 7.30738 34.5764 5.74271 34.5764 5.04416V2.0484ZM18.5237 7.06589H19.1151V2.0484H18.5237V7.06589ZM30.0157 2.0484L29.7669 2.5122L27.3623 7.06614H28.0949L29.0686 5.04442H30.2572L30.7075 7.06614H31.4395L30.15 2.04866L30.0157 2.0484ZM29.7669 4.48672H29.3508L29.7669 3.57313L29.8748 3.33811L30.1832 4.48672H29.7669Z" fill="#DADACA"/>
<path fill-rule="evenodd" clip-rule="evenodd" d="M26.671 8.30143L28.431 0.188063H27.6985L27.3159 2.04845H23.6488V5.88387L20.4048 2.04845H19.9548V7.06593H20.4048V3.23725L23.6486 7.06593H24.1655V2.47204C24.5147 2.36439 24.7969 2.36439 25.1058 2.53896V7.06619H25.69V2.53896C25.9727 2.31043 26.6708 2.29695 27.188 2.64635L25.9924 8.72502L29.7669 8.64435L30.1166 8.6376L30.2574 7.95254L29.7669 7.99949L26.671 8.30143ZM16.9258 2.04845L16.677 2.51847L14.8704 5.98425C14.7962 5.70877 14.6955 5.46702 14.5212 5.2927C13.8227 4.35213 12.1501 3.16333 12.0497 1.94754C11.9755 1.07442 12.6403 0.449793 13.5137 0.38261C14.1381 0.342403 15.0117 0.866381 15.2532 1.35664L15.8107 1.00749C15.3539 0.208036 14.1381 0 13.4395 0C12.8486 0 12.2577 0.376124 11.8476 0.805683C11.5255 1.13511 11.3107 1.49775 11.2837 1.73925V2.12237C10.1686 1.70604 8.8791 2.01472 8.94654 3.54619C9.02047 4.45304 10.5851 5.01048 10.7934 5.5342C11.0017 6.02446 11.1426 6.68254 10.1686 6.71652C9.36261 6.79019 9.05367 6.23275 9.05367 6.15908C8.70453 6.61562 6.96528 6.82365 6.79019 6.61562V4.66133H8.56342V4.27847H6.79019V2.39785C7.34763 2.33093 7.97277 2.33093 8.63734 2.39785L8.67107 2.01498H6.15908V2.04845H5.95079L4.17756 5.64211L3.54619 2.04845H3.3379L4.735 0.168089H4.07043L1.7395 3.62038H1.53147L0.658086 0.168089H0.0671833L0.832918 4.31867L0 8.52996H0.658086L1.66558 4.35213L2.9955 2.57242L3.79495 7.06593H4.03671L6.15908 2.78046V7.06593H8.67107L8.87936 6.71652C9.19479 7.03195 9.64509 7.06593 10.0614 7.06593H10.4446V8.00598C10.7937 8.31466 11.2977 8.5699 11.8479 8.69104C12.7884 8.91282 13.8634 8.75848 14.5215 7.90533C14.6958 7.65683 14.7967 7.38135 14.8706 7.06619H15.0117L15.9855 5.04446H17.1676L17.6174 7.06619H18.3496L17.0599 2.0487L16.9258 2.04845ZM12.6738 8.49623C12.3314 8.48275 12.0629 8.43631 11.8474 8.34864C11.2632 8.12011 11.0212 7.63686 10.6183 7.03221C11.8007 6.8911 11.9418 6.15934 11.5589 5.29296C11.2432 4.66134 9.47 3.72103 9.47 3.0964C9.47 2.04845 10.8606 2.04845 11.3169 2.95529L11.3841 2.71354C11.4917 3.01573 11.6528 3.28446 11.8474 3.53296C12.4857 4.36536 13.4795 4.99025 13.9635 5.84988C14.6621 7.13986 13.8561 8.49623 12.6738 8.49623ZM16.677 4.48676H16.2607L16.677 3.57317L16.7847 3.33816L17.1001 4.48676H16.677ZM45.961 2.04845H45.4437V5.88387L42.1997 2.04845H41.7494V7.06593H42.1997V3.23725L45.4437 7.06593H45.961V2.47204C46.3101 2.36439 46.5923 2.36439 46.9007 2.53896V7.06619H47.4986V2.53896C47.8076 2.29695 48.1907 2.33093 48.8553 2.57242V2.04845H45.961ZM20.2837 10.1621C20.1631 10.1621 20.0352 10.2023 19.9076 10.2832C19.7799 10.3639 19.6793 10.471 19.6056 10.6124C19.5298 10.7379 19.4902 10.8819 19.4912 11.0285C19.4912 11.0894 19.5047 11.1563 19.5314 11.217C19.5584 11.2772 19.6056 11.3244 19.6658 11.3514C19.7262 11.3851 19.7934 11.4051 19.8741 11.4051C19.9882 11.4051 20.1024 11.3716 20.2097 11.3112C20.2904 11.264 20.3711 11.1903 20.4585 11.0897L20.418 11.0552C20.3649 11.1105 20.3008 11.154 20.2297 11.1828C20.1693 11.2095 20.1091 11.23 20.0551 11.23C19.988 11.23 19.9343 11.203 19.8873 11.1491C19.8401 11.1024 19.8201 11.0352 19.8201 10.9478C19.8201 10.8404 19.8401 10.7263 19.8873 10.6054C19.9343 10.4915 19.995 10.3903 20.0819 10.3097C20.1493 10.256 20.2162 10.2225 20.2902 10.2225C20.3171 10.2225 20.3369 10.229 20.3573 10.2425C20.3708 10.256 20.3773 10.2627 20.3773 10.283C20.3773 10.3027 20.3573 10.3232 20.3234 10.3429C20.2832 10.3769 20.2564 10.4238 20.2564 10.464C20.2564 10.5045 20.2697 10.5315 20.2966 10.5582C20.3098 10.5714 20.3255 10.5819 20.3429 10.5888C20.3603 10.5957 20.3789 10.599 20.3976 10.5984C20.421 10.5982 20.444 10.5927 20.465 10.5821C20.4859 10.5716 20.5041 10.5564 20.5182 10.5377C20.538 10.5187 20.5536 10.4957 20.564 10.4703C20.5745 10.4449 20.5794 10.4175 20.5786 10.3901C20.5792 10.3594 20.5729 10.329 20.5601 10.3011C20.5473 10.2732 20.5283 10.2486 20.5047 10.229C20.4515 10.1823 20.3776 10.1621 20.2837 10.1621ZM21.6673 10.2095C21.6063 10.1804 21.54 10.1642 21.4725 10.1621C21.3989 10.1619 21.326 10.1755 21.2574 10.2023C21.2295 10.2107 21.2024 10.222 21.1768 10.236C21.0796 10.2831 20.9928 10.3494 20.9218 10.4308C20.8481 10.5047 20.7872 10.5986 20.7335 10.706C20.6863 10.8069 20.6665 10.9211 20.6665 11.0419C20.6665 11.1428 20.6933 11.2303 20.7602 11.2972C20.8274 11.3711 20.9148 11.4046 21.0354 11.4046C21.1096 11.4046 21.1835 11.3911 21.2572 11.3644C21.4601 11.2884 21.6276 11.14 21.7275 10.9478C21.8079 10.8137 21.8483 10.6726 21.8483 10.5317C21.8483 10.4643 21.8346 10.3968 21.8011 10.3431C21.7713 10.2859 21.7245 10.2393 21.6673 10.2095ZM21.4725 10.7327C21.439 10.8676 21.3921 10.988 21.3381 11.0954C21.3141 11.144 21.2871 11.1912 21.2572 11.2365C21.2405 11.2617 21.2202 11.2845 21.197 11.3039C21.1725 11.3246 21.1417 11.3364 21.1096 11.3374C21.0931 11.3372 21.0767 11.3335 21.0617 11.3266C21.0467 11.3196 21.0333 11.3096 21.0224 11.2972C20.9955 11.2702 20.989 11.2367 20.989 11.1963C20.989 11.0352 21.0224 10.8541 21.1031 10.6521C21.1571 10.5047 21.2108 10.3968 21.2574 10.3299C21.2712 10.3029 21.2912 10.2894 21.3047 10.2695C21.3364 10.2424 21.3771 10.2281 21.4188 10.2293C21.4334 10.2297 21.4477 10.2336 21.4605 10.2406C21.4734 10.2475 21.4844 10.2574 21.4927 10.2695C21.5197 10.2964 21.5262 10.3299 21.5262 10.3771C21.5262 10.4842 21.5127 10.6054 21.4725 10.7327ZM22.3791 11.2095C22.3658 11.2233 22.3524 11.23 22.3389 11.23C22.3324 11.23 22.3189 11.23 22.3119 11.2165C22.3051 11.2095 22.3051 11.203 22.3051 11.1895C22.3051 11.1693 22.3189 11.1159 22.3389 11.0279L22.7417 9.67155L22.7687 9.56417H22.695L22.2587 9.64458L22.2382 9.69231C22.2922 9.69231 22.3256 9.69853 22.3524 9.71202C22.3726 9.72577 22.3791 9.74574 22.3791 9.76597C22.3791 9.78595 22.3658 9.82615 22.3524 9.89334L21.9965 11.0956C21.9762 11.1631 21.9695 11.2168 21.9695 11.2502C21.9695 11.2904 21.983 11.3242 22.0164 11.3576C22.0502 11.3913 22.0971 11.4048 22.1578 11.4048C22.218 11.4048 22.2719 11.3849 22.3324 11.3447C22.406 11.2907 22.4867 11.1968 22.5739 11.0624L22.5202 11.0422C22.4732 11.1226 22.4265 11.1831 22.3791 11.2095ZM28.3099 10.2095C28.2489 10.1803 28.1824 10.1642 28.1148 10.1621C28.0414 10.1621 27.967 10.1756 27.9 10.2023C27.8721 10.2108 27.8451 10.2221 27.8194 10.236C27.7185 10.2832 27.6386 10.3501 27.5641 10.4308C27.4907 10.5047 27.4298 10.5986 27.3761 10.706C27.3289 10.8069 27.3086 10.9211 27.3086 11.0419C27.3086 11.1428 27.3356 11.2303 27.4028 11.2972C27.4702 11.3711 27.5574 11.4046 27.6783 11.4046C27.7517 11.4046 27.8256 11.3911 27.8998 11.3644C28.1025 11.2884 28.27 11.14 28.3698 10.9478C28.4475 10.8228 28.4894 10.6789 28.4909 10.5317C28.4909 10.4643 28.4777 10.3968 28.4437 10.3431C28.4138 10.286 28.3671 10.2394 28.3099 10.2095ZM28.1148 10.7327C28.0836 10.8582 28.0385 10.9798 27.9805 11.0954C27.9565 11.144 27.9296 11.1912 27.8998 11.2365C27.8795 11.2635 27.8598 11.2902 27.8396 11.3039C27.815 11.3247 27.7841 11.3364 27.7519 11.3374C27.7354 11.3371 27.7191 11.3334 27.7041 11.3265C27.6891 11.3196 27.6757 11.3096 27.6648 11.2972C27.6383 11.2702 27.6313 11.2367 27.6313 11.1963C27.6313 11.0352 27.6648 10.8541 27.7452 10.6521C27.7989 10.5047 27.8526 10.3968 27.8998 10.3299C27.9135 10.3029 27.9338 10.2894 27.947 10.2695C27.9787 10.2424 28.0192 10.2281 28.0609 10.2293C28.0755 10.2297 28.0898 10.2336 28.1026 10.2406C28.1155 10.2475 28.1265 10.2574 28.1348 10.2695C28.1618 10.2964 28.1688 10.3299 28.1688 10.3771C28.1695 10.4977 28.1513 10.6177 28.1148 10.7327ZM27.1006 9.56417C27.0751 9.56342 27.0499 9.56847 27.0267 9.57894C27.0035 9.58941 26.983 9.60503 26.9667 9.6246C26.9263 9.65807 26.913 9.70528 26.913 9.75897C26.913 9.81241 26.9263 9.85287 26.9667 9.89334C26.9997 9.92706 27.0469 9.94703 27.1006 9.94703C27.1543 9.94703 27.1947 9.92706 27.2355 9.89334C27.2689 9.85313 27.2892 9.81241 27.2892 9.75897C27.2892 9.70528 27.2754 9.65807 27.2355 9.6246C27.2189 9.60509 27.1982 9.58954 27.1749 9.57908C27.1515 9.56862 27.1262 9.56352 27.1006 9.56417ZM29.8211 11.0891C29.7939 11.1358 29.7609 11.1696 29.7334 11.1963C29.7202 11.203 29.7137 11.203 29.707 11.203C29.7 11.203 29.6927 11.203 29.6868 11.1963C29.6794 11.189 29.6746 11.1795 29.673 11.1693C29.673 11.1558 29.6795 11.1224 29.6927 11.0754L29.8608 10.518C29.881 10.4508 29.8948 10.3903 29.8948 10.3431C29.8947 10.2964 29.878 10.2513 29.8476 10.2158C29.8141 10.1823 29.7737 10.1621 29.7264 10.1621C29.6792 10.1621 29.6255 10.1823 29.5654 10.2095C29.5117 10.2427 29.4442 10.3029 29.3638 10.3903C29.3101 10.444 29.2294 10.5584 29.1215 10.7195L29.2837 10.1623H29.2027L28.7664 10.243L28.7527 10.29C28.7926 10.29 28.8266 10.29 28.8398 10.2967C28.8536 10.3032 28.8668 10.3102 28.8733 10.3237C28.8803 10.3302 28.8803 10.3434 28.8803 10.3571C28.8803 10.3906 28.8733 10.451 28.8463 10.532L28.6046 11.3714H28.934L29.0414 10.9815C29.1558 10.7532 29.2699 10.5857 29.3905 10.471C29.4377 10.4241 29.4782 10.4041 29.5117 10.4041C29.5218 10.4058 29.5312 10.4105 29.5386 10.4176C29.5451 10.4241 29.5451 10.4311 29.5451 10.4373C29.5451 10.4578 29.5451 10.4845 29.5314 10.5182L29.3703 11.0757C29.3506 11.1493 29.3368 11.2033 29.3368 11.2367C29.3361 11.2571 29.3399 11.2773 29.3481 11.296C29.3563 11.3146 29.3686 11.3312 29.384 11.3444C29.411 11.3714 29.4575 11.3846 29.5117 11.3846C29.6525 11.3846 29.7801 11.277 29.9078 11.0622L29.8605 11.0352C29.8416 11.0552 29.8344 11.0754 29.8211 11.0891ZM27.1813 10.1621H27.1006L26.6643 10.236L26.644 10.2894C26.6643 10.2832 26.6775 10.2832 26.6913 10.2832C26.7182 10.2832 26.745 10.2894 26.7587 10.3099C26.7784 10.3237 26.7857 10.3369 26.7857 10.3571C26.7857 10.3906 26.7787 10.4311 26.7587 10.4918L26.5774 11.1164C26.5774 11.1229 26.5774 11.1229 26.5704 11.1299C26.5639 11.1698 26.5572 11.21 26.5572 11.237C26.5572 11.264 26.5636 11.2907 26.5704 11.3177C26.5836 11.3314 26.5906 11.3447 26.6044 11.3579C26.6378 11.3916 26.685 11.4051 26.7382 11.4051C26.8861 11.4051 27.0274 11.291 27.1545 11.0627L27.1146 11.0357C27.0609 11.1231 27.0137 11.1768 26.9732 11.21C26.9674 11.2167 26.9602 11.222 26.9522 11.2255C26.9441 11.2291 26.9353 11.2308 26.9265 11.2305C26.92 11.2305 26.9133 11.2238 26.9063 11.217C26.8931 11.21 26.8931 11.2035 26.8931 11.1901C26.8931 11.1766 26.8996 11.1428 26.9133 11.0894L27.1813 10.1621ZM25.6633 10.2293C25.6166 10.1823 25.5494 10.1621 25.4555 10.1621C25.3279 10.1621 25.2067 10.2023 25.0791 10.2832C24.9505 10.3635 24.8461 10.4773 24.7772 10.6124C24.6993 10.7373 24.6574 10.8813 24.656 11.0285C24.656 11.0894 24.6763 11.1563 24.7033 11.217C24.7302 11.2772 24.7772 11.3244 24.8376 11.3514C24.8978 11.3851 24.9652 11.4051 25.0392 11.4051C25.1598 11.4051 25.2672 11.3716 25.3816 11.3112C25.4622 11.264 25.5427 11.1903 25.6166 11.0897L25.5831 11.0557C25.5337 11.1121 25.4716 11.1559 25.4018 11.1833C25.3411 11.21 25.2807 11.2305 25.227 11.2305C25.1595 11.2305 25.1058 11.2035 25.0589 11.1496C25.0122 11.1029 24.992 11.0357 24.992 10.9483C24.992 10.8409 25.0122 10.7268 25.0589 10.6059C25.1061 10.492 25.1668 10.3909 25.2539 10.3102C25.3214 10.2565 25.3883 10.223 25.4622 10.223C25.4892 10.223 25.5089 10.2295 25.5297 10.243C25.5429 10.2565 25.5494 10.2632 25.5494 10.2835C25.5494 10.3032 25.5297 10.3237 25.4957 10.3434C25.4757 10.3568 25.4592 10.3748 25.4476 10.3959C25.4359 10.4169 25.4295 10.4405 25.4288 10.4645C25.4288 10.505 25.442 10.532 25.4687 10.5587C25.4954 10.5854 25.5294 10.5989 25.5629 10.5989C25.5862 10.598 25.609 10.5921 25.6298 10.5816C25.6506 10.5711 25.6689 10.5563 25.6835 10.5382C25.724 10.498 25.7377 10.451 25.7377 10.3906C25.7377 10.3234 25.717 10.2695 25.6633 10.2293ZM24.3541 10.1621C24.2602 10.1621 24.1593 10.1823 24.0584 10.2225C24.0182 10.2425 23.971 10.2627 23.9305 10.2894C23.7898 10.3735 23.6722 10.4913 23.5884 10.6321C23.5444 10.7103 23.5105 10.7938 23.4875 10.8806C23.474 10.9401 23.4671 11.0009 23.467 11.0619C23.467 11.1089 23.474 11.1491 23.4875 11.1895C23.501 11.2297 23.5207 11.2632 23.5476 11.2969C23.6016 11.3709 23.7022 11.4043 23.8501 11.4043C23.924 11.4043 23.9912 11.3908 24.0584 11.3709C24.0986 11.3571 24.1326 11.3439 24.1658 11.3306C24.2602 11.2767 24.3541 11.1895 24.4548 11.0684L24.4145 11.0349C24.3339 11.1086 24.2602 11.1626 24.1998 11.1895C24.1523 11.2092 24.1056 11.2297 24.0587 11.2297C24.0452 11.2362 24.0317 11.2362 24.0184 11.2362C23.9578 11.2362 23.9041 11.2163 23.8706 11.176C23.8507 11.1556 23.8351 11.1314 23.8247 11.1049C23.8143 11.0783 23.8094 11.05 23.8102 11.0214C23.8102 10.981 23.8164 10.934 23.8236 10.8803C23.9175 10.8739 23.998 10.8601 24.0587 10.8466C24.0651 10.8466 24.0721 10.8401 24.0789 10.8401C24.1728 10.8134 24.2602 10.7797 24.3339 10.7263C24.4081 10.6788 24.4747 10.6121 24.5222 10.5315C24.5624 10.4708 24.5759 10.4103 24.5759 10.3501C24.5759 10.2962 24.5624 10.2492 24.5222 10.2155C24.488 10.1823 24.428 10.1621 24.3541 10.1621ZM24.2397 10.5112C24.2173 10.5713 24.1831 10.6262 24.1391 10.6728C24.1121 10.6995 24.0854 10.7195 24.0584 10.74C24.045 10.7526 24.0288 10.7618 24.0112 10.767C23.9707 10.7867 23.9105 10.8004 23.8369 10.8142C23.8971 10.6126 23.971 10.458 24.0584 10.3507C24.0649 10.3436 24.0719 10.3436 24.0719 10.3372C24.1256 10.2767 24.1728 10.2497 24.2127 10.2497C24.233 10.2497 24.2529 10.2562 24.2667 10.2697C24.2802 10.2835 24.2869 10.3032 24.2869 10.3302C24.2867 10.3836 24.2667 10.444 24.2397 10.5112ZM23.1248 11.2095C23.1121 11.222 23.0952 11.2293 23.0774 11.23C23.0709 11.23 23.0574 11.23 23.0506 11.2165C23.0439 11.2095 23.0439 11.203 23.0439 11.1895C23.0439 11.1693 23.0574 11.1159 23.0774 11.0279L23.4875 9.63809L23.5077 9.56417H23.4335L22.9972 9.64458L22.9835 9.69231C23.0307 9.69231 23.0639 9.69853 23.0909 9.71202C23.1116 9.72577 23.1178 9.74574 23.1178 9.76597C23.1178 9.78595 23.1116 9.82615 23.0909 9.89334L22.7414 11.0891L22.7352 11.0954C22.715 11.1628 22.7082 11.2165 22.7082 11.25C22.7082 11.2837 22.7147 11.3104 22.7414 11.3374C22.7414 11.3441 22.7484 11.3509 22.7549 11.3574C22.7887 11.3911 22.8356 11.4046 22.896 11.4046C22.9565 11.4046 23.0169 11.3846 23.0706 11.3444C23.1513 11.2904 23.2317 11.1965 23.3121 11.0622L23.2587 11.0419C23.2122 11.1226 23.1653 11.1831 23.1248 11.2095ZM26.3756 10.3504H26.5431L26.5701 10.2562L26.5904 10.2025H26.4228L26.5232 9.84639H26.4562C26.3489 9.96752 26.2612 10.0549 26.1808 10.1086C26.0944 10.1713 25.9993 10.221 25.8985 10.2562L25.8788 10.3504H26.0531L25.8449 11.0554C25.8251 11.1296 25.8114 11.1965 25.8114 11.2437C25.811 11.2656 25.8157 11.2872 25.825 11.3069C25.8343 11.3267 25.848 11.344 25.8651 11.3576C25.8921 11.3913 25.939 11.4048 25.9995 11.4048C26.0669 11.4048 26.1408 11.3779 26.2142 11.3312C26.2817 11.284 26.3491 11.2098 26.4093 11.1029L26.3621 11.0759C26.3089 11.1496 26.2612 11.2035 26.2212 11.2305C26.2075 11.244 26.1943 11.2505 26.1808 11.2505C26.1675 11.2505 26.1611 11.244 26.1543 11.237C26.1473 11.2305 26.1406 11.2235 26.1406 11.21C26.1406 11.1833 26.147 11.1498 26.1608 11.1032L26.3756 10.3504Z" fill="#DADACA"/>
</svg>
