<svg width="46" height="18" viewBox="0 0 46 18" fill="none" xmlns="http://www.w3.org/2000/svg">
<path fill-rule="evenodd" clip-rule="evenodd" d="M1.83622 0.423819L0.979884 0.379575L0.626903 0.308979L0.556307 0.17649C0.556307 0.052947 0.644552 0 0.821284 0H9.67651C13.826 0 16.7393 1.26251 18.4345 3.79623C19.4057 5.26183 19.8912 7.00111 19.8912 9.01406C19.8912 10.0648 19.7323 11.08 19.4055 12.0598C19.0348 13.0929 18.5228 14.0025 17.8606 14.8148C17.1365 15.6709 16.2538 16.3333 15.2384 16.8188C14.1523 17.3132 12.9341 17.5692 11.5657 17.5692H0.273681C0.0882452 17.5692 0 17.5074 0 17.4017C0 17.2869 0.132489 17.2252 0.379575 17.2252L2.54267 17.093C2.87824 17.0485 3.11663 16.9513 3.23147 16.819L3.4522 16.5098C3.53174 16.2983 3.57598 15.9806 3.58469 15.5478V1.54514C3.58469 0.997774 3.27571 0.662202 2.6754 0.529713L1.83622 0.423819ZM6.60388 0.662202L6.54199 1.01542V16.5628C6.54199 16.7393 6.57729 16.8626 6.64788 16.907L7.00111 16.96H8.16643L10.8679 16.8628C11.5918 16.7835 12.2097 16.6687 12.6955 16.5096C13.1784 16.3334 13.6311 16.0834 14.0373 15.7683C14.3905 15.477 14.7524 15.0619 15.1499 14.5322C15.8118 13.6671 16.2886 12.5634 16.5799 11.2127C16.7564 10.3302 16.8449 9.47366 16.8449 8.65262C16.8449 7.92877 16.739 7.15173 16.5183 6.31303C16.2093 5.10347 15.7412 4.04405 15.079 3.14346C13.7989 1.39548 11.6977 0.530196 8.79309 0.530196H7.00086C6.79802 0.512064 6.66553 0.556308 6.60388 0.662202ZM21.6302 17.4368C21.6126 17.3306 21.7008 17.2866 21.8952 17.2866L22.5132 17.2687C22.8487 17.2247 23.0518 17.1101 23.1311 16.9334L23.246 16.2978V11.1682C23.246 10.9741 23.1751 10.8239 23.0429 10.7357L22.5838 10.6912L21.9658 10.8592L21.6302 10.8413C21.586 10.7354 21.7185 10.6383 22.0274 10.55C22.7602 10.3559 23.405 10.1085 23.9522 9.79956C24.2875 9.60542 24.5259 9.49929 24.6318 9.45529L24.8967 9.42894C24.985 9.44634 25.0295 9.62307 25.0295 9.94076V16.4032C25.0295 16.7119 25.0998 16.9329 25.2326 17.0652C25.3912 17.2242 25.7623 17.3035 26.336 17.3035C26.5391 17.3035 26.6447 17.348 26.6629 17.4447C26.6629 17.5245 26.601 17.5509 26.4948 17.5509H21.7891C21.6832 17.5516 21.6302 17.5071 21.6302 17.4368ZM42.4658 11.08C42.0332 11.5304 41.7419 12.0598 41.5828 12.6955V16.4479C41.5828 16.7833 41.6977 17.0216 41.936 17.1718L42.4749 17.2685L43.0397 17.3304C43.1724 17.3483 43.2254 17.3749 43.2254 17.4452L43.199 17.5071L43.0489 17.5516H38.3255C38.1843 17.5516 38.105 17.5071 38.105 17.4368L38.2372 17.3306L39.0319 17.2687C39.3407 17.2158 39.5353 17.1101 39.6412 16.951L39.7739 16.5538V11.2567L39.6852 10.8682L39.5355 10.7799C39.491 10.7359 39.4207 10.7096 39.3146 10.6917C39.1823 10.6832 39.0232 10.7096 38.8557 10.7799L38.4057 10.9037L38.1492 10.8418C38.1052 10.7799 38.1229 10.7359 38.1845 10.7096L38.5641 10.5505C39.4291 10.2945 40.1266 10.0297 40.6126 9.75629L41.2127 9.42942L41.4776 9.44683L41.5835 9.6678V11.6099C42.246 10.5328 42.7755 9.87089 43.1376 9.64991C43.3581 9.51766 43.5701 9.41153 43.7292 9.36753L44.038 9.34117C44.2321 9.32328 44.4531 9.38517 44.6999 9.54426C45.0357 9.7384 45.2122 10.0297 45.2296 10.4004C45.2475 10.7096 45.1588 10.9482 44.9647 11.1332C44.7882 11.2833 44.6114 11.3278 44.4528 11.2833C44.3027 11.2569 44.1879 11.195 44.1086 11.1068L43.8612 10.7981C43.6671 10.5152 43.4817 10.427 43.2612 10.5067C43.0042 10.5766 42.7397 10.7712 42.4658 11.08ZM24.014 3.82283C23.6872 3.82283 23.4224 3.93767 23.202 4.1584C22.9636 4.37914 22.8487 4.66152 22.8661 4.98839C22.8487 5.29737 22.9633 5.56235 23.202 5.78308C23.4224 6.00381 23.6874 6.11841 24.014 6.11841C24.3228 6.11841 24.5967 6.00357 24.8172 5.78308C25.0377 5.56235 25.1615 5.29761 25.1615 4.98839C25.1615 4.66152 25.0377 4.37914 24.8172 4.1584C24.5967 3.93767 24.3228 3.82283 24.014 3.82283ZM28.6932 10.8679C29.0109 10.4444 29.4086 10.0911 29.8851 9.80875C30.3092 9.56142 30.7328 9.40258 31.1742 9.3228L32.8076 9.22609C33.3987 9.25245 33.9466 9.36728 34.441 9.58778C35.6329 10.1175 36.3831 11.0889 36.6655 12.5013C36.9568 13.9316 36.71 15.1414 35.9327 16.1213C35.2707 16.951 34.3965 17.4808 33.2931 17.7102C32.1367 17.9662 31.0596 17.8867 30.0882 17.4897C28.8255 16.9774 28.0579 15.9622 27.8103 14.479C27.5896 13.0755 27.8809 11.8834 28.6932 10.8679ZM33.8666 10.471C33.3281 9.87088 32.6483 9.60591 31.827 9.67626C31.0328 9.75605 30.4236 10.197 30.0261 11.0357C29.6644 11.7951 29.5317 12.7225 29.6644 13.817C29.7611 14.903 30.1059 15.7681 30.6617 16.4303C31.2533 17.1278 31.9244 17.4191 32.6746 17.2869C33.4604 17.1367 34.0346 16.7127 34.4142 16.0067C34.7848 15.2829 34.917 14.347 34.8288 13.1551C34.7231 11.9631 34.4144 11.08 33.8666 10.471Z" fill="#DADACA"/>
</svg>
